<?xml version="1.0" encoding="UTF-8" standalone="no"?>
<!DOCTYPE svg PUBLIC "-//W3C//DTD SVG 1.1//EN"
 "http://www.w3.org/Graphics/SVG/1.1/DTD/svg11.dtd">
<!-- Generated by graphviz version 2.40.1 (20161225.0304)
 -->
<!-- Title: %3 Pages: 1 -->
<svg width="908pt" height="404pt"
 viewBox="0.00 0.00 907.76 404.00" xmlns="http://www.w3.org/2000/svg" xmlns:xlink="http://www.w3.org/1999/xlink">
<g id="graph0" class="graph" transform="scale(1 1) rotate(0) translate(4 400)">
<title>%3</title>
<polygon fill="#ffffff" stroke="transparent" points="-4,4 -4,-400 903.7627,-400 903.7627,4 -4,4"/>
<!-- [root] lsc_cisco_interface.GigabitEthernet_0_0_0_4 -->
<g id="node1" class="node">
<title>[root] lsc_cisco_interface.GigabitEthernet_0_0_0_4</title>
<polygon fill="none" stroke="#000000" points="272.2857,-252 -.0953,-252 -.0953,-216 272.2857,-216 272.2857,-252"/>
<text text-anchor="middle" x="136.0952" y="-229.8" font-family="Times,serif" font-size="14.00" fill="#000000">lsc_cisco_interface.GigabitEthernet_0_0_0_4</text>
</g>
<!-- [root] lsc_netconf_device.cisco1 -->
<g id="node6" class="node">
<title>[root] lsc_netconf_device.cisco1</title>
<polygon fill="none" stroke="#000000" points="491.9237,-108 328.2668,-108 328.2668,-72 491.9237,-72 491.9237,-108"/>
<text text-anchor="middle" x="410.0952" y="-85.8" font-family="Times,serif" font-size="14.00" fill="#000000">lsc_netconf_device.cisco1</text>
</g>
<!-- [root] lsc_cisco_interface.GigabitEthernet_0_0_0_4&#45;&gt;[root] lsc_netconf_device.cisco1 -->
<g id="edge1" class="edge">
<title>[root] lsc_cisco_interface.GigabitEthernet_0_0_0_4&#45;&gt;[root] lsc_netconf_device.cisco1</title>
<path fill="none" stroke="#000000" d="M170.5201,-215.9081C220.2491,-189.7732 312.1686,-141.4651 366.5499,-112.8851"/>
<polygon fill="#000000" stroke="#000000" points="368.3719,-115.8815 375.5957,-108.1311 365.1154,-109.6851 368.3719,-115.8815"/>
</g>
<!-- [root] lsc_cisco_interface.GigabitEthernet_0_0_0_5 -->
<g id="node2" class="node">
<title>[root] lsc_cisco_interface.GigabitEthernet_0_0_0_5</title>
<polygon fill="none" stroke="#000000" points="562.2857,-252 289.9047,-252 289.9047,-216 562.2857,-216 562.2857,-252"/>
<text text-anchor="middle" x="426.0952" y="-229.8" font-family="Times,serif" font-size="14.00" fill="#000000">lsc_cisco_interface.GigabitEthernet_0_0_0_5</text>
</g>
<!-- [root] lsc_cisco_interface.GigabitEthernet_0_0_0_5&#45;&gt;[root] lsc_netconf_device.cisco1 -->
<g id="edge2" class="edge">
<title>[root] lsc_cisco_interface.GigabitEthernet_0_0_0_5&#45;&gt;[root] lsc_netconf_device.cisco1</title>
<path fill="none" stroke="#000000" d="M386.5004,-215.8102C372.3476,-207.1243 357.965,-195.2457 350.0952,-180 342.7562,-165.7825 343.5858,-158.616 350.0952,-144 355.1286,-132.6983 363.8257,-122.7696 373.0611,-114.611"/>
<polygon fill="#000000" stroke="#000000" points="375.3767,-117.2382 380.8768,-108.1828 370.9302,-111.8319 375.3767,-117.2382"/>
</g>
<!-- [root] lsc_cisco_l2vpn.l2vpn_eviid_9 -->
<g id="node3" class="node">
<title>[root] lsc_cisco_l2vpn.l2vpn_eviid_9</title>
<polygon fill="none" stroke="#000000" points="770.1855,-252 580.0049,-252 580.0049,-216 770.1855,-216 770.1855,-252"/>
<text text-anchor="middle" x="675.0952" y="-229.8" font-family="Times,serif" font-size="14.00" fill="#000000">lsc_cisco_l2vpn.l2vpn_eviid_9</text>
</g>
<!-- [root] lsc_cisco_vlan.GigabitEthernet_0_0_0_4_1 -->
<g id="node4" class="node">
<title>[root] lsc_cisco_vlan.GigabitEthernet_0_0_0_4_1</title>
<polygon fill="none" stroke="#000000" points="620.9304,-180 359.26,-180 359.26,-144 620.9304,-144 620.9304,-180"/>
<text text-anchor="middle" x="490.0952" y="-157.8" font-family="Times,serif" font-size="14.00" fill="#000000">lsc_cisco_vlan.GigabitEthernet_0_0_0_4_1</text>
</g>
<!-- [root] lsc_cisco_l2vpn.l2vpn_eviid_9&#45;&gt;[root] lsc_cisco_vlan.GigabitEthernet_0_0_0_4_1 -->
<g id="edge3" class="edge">
<title>[root] lsc_cisco_l2vpn.l2vpn_eviid_9&#45;&gt;[root] lsc_cisco_vlan.GigabitEthernet_0_0_0_4_1</title>
<path fill="none" stroke="#000000" d="M628.4119,-215.8314C603.3393,-206.0734 572.2585,-193.977 545.9143,-183.7242"/>
<polygon fill="#000000" stroke="#000000" points="547.0314,-180.4033 536.4428,-180.038 544.4925,-186.9266 547.0314,-180.4033"/>
</g>
<!-- [root] lsc_cisco_vlan.GigabitEthernet_0_0_0_5_1 -->
<g id="node5" class="node">
<title>[root] lsc_cisco_vlan.GigabitEthernet_0_0_0_5_1</title>
<polygon fill="none" stroke="#000000" points="899.9304,-180 638.26,-180 638.26,-144 899.9304,-144 899.9304,-180"/>
<text text-anchor="middle" x="769.0952" y="-157.8" font-family="Times,serif" font-size="14.00" fill="#000000">lsc_cisco_vlan.GigabitEthernet_0_0_0_5_1</text>
</g>
<!-- [root] lsc_cisco_l2vpn.l2vpn_eviid_9&#45;&gt;[root] lsc_cisco_vlan.GigabitEthernet_0_0_0_5_1 -->
<g id="edge4" class="edge">
<title>[root] lsc_cisco_l2vpn.l2vpn_eviid_9&#45;&gt;[root] lsc_cisco_vlan.GigabitEthernet_0_0_0_5_1</title>
<path fill="none" stroke="#000000" d="M698.8154,-215.8314C710.5046,-206.8779 724.764,-195.9558 737.3761,-186.2955"/>
<polygon fill="#000000" stroke="#000000" points="739.5721,-189.0222 745.3826,-180.1628 735.3155,-183.4651 739.5721,-189.0222"/>
</g>
<!-- [root] lsc_cisco_vlan.GigabitEthernet_0_0_0_4_1&#45;&gt;[root] lsc_netconf_device.cisco1 -->
<g id="edge5" class="edge">
<title>[root] lsc_cisco_vlan.GigabitEthernet_0_0_0_4_1&#45;&gt;[root] lsc_netconf_device.cisco1</title>
<path fill="none" stroke="#000000" d="M469.9078,-143.8314C460.2438,-135.1337 448.5156,-124.5783 438.0136,-115.1265"/>
<polygon fill="#000000" stroke="#000000" points="440.0505,-112.251 430.2761,-108.1628 435.3677,-117.454 440.0505,-112.251"/>
</g>
<!-- [root] lsc_cisco_vlan.GigabitEthernet_0_0_0_5_1&#45;&gt;[root] lsc_netconf_device.cisco1 -->
<g id="edge6" class="edge">
<title>[root] lsc_cisco_vlan.GigabitEthernet_0_0_0_5_1&#45;&gt;[root] lsc_netconf_device.cisco1</title>
<path fill="none" stroke="#000000" d="M678.9677,-143.9243C624.9035,-133.0813 556.3168,-119.3258 501.9477,-108.4217"/>
<polygon fill="#000000" stroke="#000000" points="502.461,-104.955 491.968,-106.4202 501.0845,-111.8183 502.461,-104.955"/>
</g>
<!-- [root] provider.lsc -->
<g id="node7" class="node">
<title>[root] provider.lsc</title>
<polygon fill="none" stroke="#000000" points="410.0952,-36 337.1011,-18 410.0952,0 483.0893,-18 410.0952,-36"/>
<text text-anchor="middle" x="410.0952" y="-13.8" font-family="Times,serif" font-size="14.00" fill="#000000">provider.lsc</text>
</g>
<!-- [root] lsc_netconf_device.cisco1&#45;&gt;[root] provider.lsc -->
<g id="edge7" class="edge">
<title>[root] lsc_netconf_device.cisco1&#45;&gt;[root] provider.lsc</title>
<path fill="none" stroke="#000000" d="M410.0952,-71.8314C410.0952,-64.131 410.0952,-54.9743 410.0952,-46.4166"/>
<polygon fill="#000000" stroke="#000000" points="413.5953,-46.4132 410.0952,-36.4133 406.5953,-46.4133 413.5953,-46.4132"/>
</g>
<!-- [root] meta.count&#45;boundary (EachMode fixup) -->
<g id="node8" class="node">
<title>[root] meta.count&#45;boundary (EachMode fixup)</title>
<ellipse fill="none" stroke="#000000" cx="259.0952" cy="-306" rx="174.7874" ry="18"/>
<text text-anchor="middle" x="259.0952" y="-301.8" font-family="Times,serif" font-size="14.00" fill="#000000">[root] meta.count&#45;boundary (EachMode fixup)</text>
</g>
<!-- [root] meta.count&#45;boundary (EachMode fixup)&#45;&gt;[root] lsc_cisco_interface.GigabitEthernet_0_0_0_4 -->
<g id="edge8" class="edge">
<title>[root] meta.count&#45;boundary (EachMode fixup)&#45;&gt;[root] lsc_cisco_interface.GigabitEthernet_0_0_0_4</title>
<path fill="none" stroke="#000000" d="M228.6907,-288.2022C212.6975,-278.8404 192.8969,-267.2498 175.716,-257.1927"/>
<polygon fill="#000000" stroke="#000000" points="177.4026,-254.1244 167.0043,-252.0931 173.8663,-260.1655 177.4026,-254.1244"/>
</g>
<!-- [root] meta.count&#45;boundary (EachMode fixup)&#45;&gt;[root] lsc_cisco_interface.GigabitEthernet_0_0_0_5 -->
<g id="edge9" class="edge">
<title>[root] meta.count&#45;boundary (EachMode fixup)&#45;&gt;[root] lsc_cisco_interface.GigabitEthernet_0_0_0_5</title>
<path fill="none" stroke="#000000" d="M299.948,-288.3868C322.5384,-278.6472 350.8216,-266.4533 374.8788,-256.0813"/>
<polygon fill="#000000" stroke="#000000" points="376.4153,-259.2304 384.2125,-252.0572 373.6439,-252.8023 376.4153,-259.2304"/>
</g>
<!-- [root] meta.count&#45;boundary (EachMode fixup)&#45;&gt;[root] lsc_cisco_l2vpn.l2vpn_eviid_9 -->
<g id="edge10" class="edge">
<title>[root] meta.count&#45;boundary (EachMode fixup)&#45;&gt;[root] lsc_cisco_l2vpn.l2vpn_eviid_9</title>
<path fill="none" stroke="#000000" d="M348.5931,-290.51C413.5737,-279.2633 501.7097,-264.009 570.0328,-252.1839"/>
<polygon fill="#000000" stroke="#000000" points="570.7078,-255.6192 579.9643,-250.465 569.5139,-248.7217 570.7078,-255.6192"/>
</g>
<!-- [root] provider.lsc (close) -->
<g id="node9" class="node">
<title>[root] provider.lsc (close)</title>
<ellipse fill="none" stroke="#000000" cx="552.0952" cy="-306" rx="100.4689" ry="18"/>
<text text-anchor="middle" x="552.0952" y="-301.8" font-family="Times,serif" font-size="14.00" fill="#000000">[root] provider.lsc (close)</text>
</g>
<!-- [root] provider.lsc (close)&#45;&gt;[root] lsc_cisco_interface.GigabitEthernet_0_0_0_4 -->
<g id="edge11" class="edge">
<title>[root] provider.lsc (close)&#45;&gt;[root] lsc_cisco_interface.GigabitEthernet_0_0_0_4</title>
<path fill="none" stroke="#000000" d="M479.6335,-293.4586C416.492,-282.5302 323.8353,-266.4935 250.657,-253.828"/>
<polygon fill="#000000" stroke="#000000" points="250.916,-250.3209 240.4656,-252.0641 249.7221,-257.2183 250.916,-250.3209"/>
</g>
<!-- [root] provider.lsc (close)&#45;&gt;[root] lsc_cisco_interface.GigabitEthernet_0_0_0_5 -->
<g id="edge12" class="edge">
<title>[root] provider.lsc (close)&#45;&gt;[root] lsc_cisco_interface.GigabitEthernet_0_0_0_5</title>
<path fill="none" stroke="#000000" d="M521.9151,-288.7542C505.4237,-279.3306 484.7695,-267.5282 466.8638,-257.2963"/>
<polygon fill="#000000" stroke="#000000" points="468.2063,-254.0324 457.7874,-252.1098 464.7333,-260.1101 468.2063,-254.0324"/>
</g>
<!-- [root] provider.lsc (close)&#45;&gt;[root] lsc_cisco_l2vpn.l2vpn_eviid_9 -->
<g id="edge13" class="edge">
<title>[root] provider.lsc (close)&#45;&gt;[root] lsc_cisco_l2vpn.l2vpn_eviid_9</title>
<path fill="none" stroke="#000000" d="M581.5568,-288.7542C597.6555,-279.3306 617.8179,-267.5282 635.2973,-257.2963"/>
<polygon fill="#000000" stroke="#000000" points="637.2956,-260.1822 644.1576,-252.1098 633.7593,-254.1411 637.2956,-260.1822"/>
</g>
<!-- [root] root -->
<g id="node10" class="node">
<title>[root] root</title>
<ellipse fill="none" stroke="#000000" cx="405.0952" cy="-378" rx="46.8976" ry="18"/>
<text text-anchor="middle" x="405.0952" y="-373.8" font-family="Times,serif" font-size="14.00" fill="#000000">[root] root</text>
</g>
<!-- [root] root&#45;&gt;[root] meta.count&#45;boundary (EachMode fixup) -->
<g id="edge14" class="edge">
<title>[root] root&#45;&gt;[root] meta.count&#45;boundary (EachMode fixup)</title>
<path fill="none" stroke="#000000" d="M376.2503,-363.7751C355.6349,-353.6086 327.4939,-339.7308 303.9593,-328.1248"/>
<polygon fill="#000000" stroke="#000000" points="305.3758,-324.9209 294.859,-323.6369 302.2797,-331.199 305.3758,-324.9209"/>
</g>
<!-- [root] root&#45;&gt;[root] provider.lsc (close) -->
<g id="edge15" class="edge">
<title>[root] root&#45;&gt;[root] provider.lsc (close)</title>
<path fill="none" stroke="#000000" d="M434.1377,-363.7751C455.2637,-353.4277 484.2388,-339.2358 508.1843,-327.5074"/>
<polygon fill="#000000" stroke="#000000" points="509.983,-330.5237 517.4241,-322.9818 506.9039,-324.2373 509.983,-330.5237"/>
</g>
</g>
</svg>
