<?xml version="1.0" encoding="UTF-8" standalone="no"?>
<!DOCTYPE svg PUBLIC "-//W3C//DTD SVG 1.1//EN"
 "http://www.w3.org/Graphics/SVG/1.1/DTD/svg11.dtd">
<!-- Generated by graphviz version 2.40.1 (20161225.0304)
 -->
<!-- Title: %3 Pages: 1 -->
<svg width="611pt" height="476pt"
 viewBox="0.00 0.00 610.74 476.00" xmlns="http://www.w3.org/2000/svg" xmlns:xlink="http://www.w3.org/1999/xlink">
<g id="graph0" class="graph" transform="scale(1 1) rotate(0) translate(4 472)">
<title>%3</title>
<polygon fill="#ffffff" stroke="transparent" points="-4,4 -4,-472 606.7389,-472 606.7389,4 -4,4"/>
<!-- [root] lsc_cisco_interface.GigabitEthernet_0_0_0_4 -->
<g id="node1" class="node">
<title>[root] lsc_cisco_interface.GigabitEthernet_0_0_0_4</title>
<polygon fill="none" stroke="#000000" points="312.8342,-180 40.4532,-180 40.4532,-144 312.8342,-144 312.8342,-180"/>
<text text-anchor="middle" x="176.6437" y="-157.8" font-family="Times,serif" font-size="14.00" fill="#000000">lsc_cisco_interface.GigabitEthernet_0_0_0_4</text>
</g>
<!-- [root] lsc_netconf_device.cisco1 -->
<g id="node6" class="node">
<title>[root] lsc_netconf_device.cisco1</title>
<polygon fill="none" stroke="#000000" points="403.4721,-108 239.8152,-108 239.8152,-72 403.4721,-72 403.4721,-108"/>
<text text-anchor="middle" x="321.6437" y="-85.8" font-family="Times,serif" font-size="14.00" fill="#000000">lsc_netconf_device.cisco1</text>
</g>
<!-- [root] lsc_cisco_interface.GigabitEthernet_0_0_0_4&#45;&gt;[root] lsc_netconf_device.cisco1 -->
<g id="edge1" class="edge">
<title>[root] lsc_cisco_interface.GigabitEthernet_0_0_0_4&#45;&gt;[root] lsc_netconf_device.cisco1</title>
<path fill="none" stroke="#000000" d="M213.2333,-143.8314C232.3676,-134.3302 255.9665,-122.6121 276.2559,-112.5374"/>
<polygon fill="#000000" stroke="#000000" points="277.9172,-115.6203 285.3171,-108.038 274.8039,-109.3506 277.9172,-115.6203"/>
</g>
<!-- [root] lsc_cisco_interface.GigabitEthernet_0_0_0_5 -->
<g id="node2" class="node">
<title>[root] lsc_cisco_interface.GigabitEthernet_0_0_0_5</title>
<polygon fill="none" stroke="#000000" points="602.8342,-180 330.4532,-180 330.4532,-144 602.8342,-144 602.8342,-180"/>
<text text-anchor="middle" x="466.6437" y="-157.8" font-family="Times,serif" font-size="14.00" fill="#000000">lsc_cisco_interface.GigabitEthernet_0_0_0_5</text>
</g>
<!-- [root] lsc_cisco_interface.GigabitEthernet_0_0_0_5&#45;&gt;[root] lsc_netconf_device.cisco1 -->
<g id="edge2" class="edge">
<title>[root] lsc_cisco_interface.GigabitEthernet_0_0_0_5&#45;&gt;[root] lsc_netconf_device.cisco1</title>
<path fill="none" stroke="#000000" d="M430.054,-143.8314C410.9197,-134.3302 387.3208,-122.6121 367.0315,-112.5374"/>
<polygon fill="#000000" stroke="#000000" points="368.4834,-109.3506 357.9702,-108.038 365.3702,-115.6203 368.4834,-109.3506"/>
</g>
<!-- [root] lsc_cisco_l2vpn.l2vpn_eviid_9 -->
<g id="node3" class="node">
<title>[root] lsc_cisco_l2vpn.l2vpn_eviid_9</title>
<polygon fill="none" stroke="#000000" points="415.7339,-324 225.5534,-324 225.5534,-288 415.7339,-288 415.7339,-324"/>
<text text-anchor="middle" x="320.6437" y="-301.8" font-family="Times,serif" font-size="14.00" fill="#000000">lsc_cisco_l2vpn.l2vpn_eviid_9</text>
</g>
<!-- [root] lsc_cisco_vlan.GigabitEthernet_0_0_0_4_1 -->
<g id="node4" class="node">
<title>[root] lsc_cisco_vlan.GigabitEthernet_0_0_0_4_1</title>
<polygon fill="none" stroke="#000000" points="312.4788,-252 50.8085,-252 50.8085,-216 312.4788,-216 312.4788,-252"/>
<text text-anchor="middle" x="181.6437" y="-229.8" font-family="Times,serif" font-size="14.00" fill="#000000">lsc_cisco_vlan.GigabitEthernet_0_0_0_4_1</text>
</g>
<!-- [root] lsc_cisco_l2vpn.l2vpn_eviid_9&#45;&gt;[root] lsc_cisco_vlan.GigabitEthernet_0_0_0_4_1 -->
<g id="edge3" class="edge">
<title>[root] lsc_cisco_l2vpn.l2vpn_eviid_9&#45;&gt;[root] lsc_cisco_vlan.GigabitEthernet_0_0_0_4_1</title>
<path fill="none" stroke="#000000" d="M285.5681,-287.8314C267.3776,-278.4089 244.9779,-266.8062 225.6377,-256.7883"/>
<polygon fill="#000000" stroke="#000000" points="227.1973,-253.6545 216.708,-252.1628 223.9777,-259.8701 227.1973,-253.6545"/>
</g>
<!-- [root] lsc_cisco_vlan.GigabitEthernet_0_0_0_5_1 -->
<g id="node5" class="node">
<title>[root] lsc_cisco_vlan.GigabitEthernet_0_0_0_5_1</title>
<polygon fill="none" stroke="#000000" points="594.4788,-252 332.8085,-252 332.8085,-216 594.4788,-216 594.4788,-252"/>
<text text-anchor="middle" x="463.6437" y="-229.8" font-family="Times,serif" font-size="14.00" fill="#000000">lsc_cisco_vlan.GigabitEthernet_0_0_0_5_1</text>
</g>
<!-- [root] lsc_cisco_l2vpn.l2vpn_eviid_9&#45;&gt;[root] lsc_cisco_vlan.GigabitEthernet_0_0_0_5_1 -->
<g id="edge4" class="edge">
<title>[root] lsc_cisco_l2vpn.l2vpn_eviid_9&#45;&gt;[root] lsc_cisco_vlan.GigabitEthernet_0_0_0_5_1</title>
<path fill="none" stroke="#000000" d="M356.7286,-287.8314C375.4426,-278.4089 398.4869,-266.8062 418.3836,-256.7883"/>
<polygon fill="#000000" stroke="#000000" points="420.2125,-259.7861 427.5703,-252.1628 417.0645,-253.5339 420.2125,-259.7861"/>
</g>
<!-- [root] lsc_cisco_vlan.GigabitEthernet_0_0_0_4_1&#45;&gt;[root] lsc_cisco_interface.GigabitEthernet_0_0_0_4 -->
<g id="edge5" class="edge">
<title>[root] lsc_cisco_vlan.GigabitEthernet_0_0_0_4_1&#45;&gt;[root] lsc_cisco_interface.GigabitEthernet_0_0_0_4</title>
<path fill="none" stroke="#000000" d="M180.3819,-215.8314C179.8472,-208.131 179.2113,-198.9743 178.617,-190.4166"/>
<polygon fill="#000000" stroke="#000000" points="182.1068,-190.1467 177.9224,-180.4133 175.1236,-190.6317 182.1068,-190.1467"/>
</g>
<!-- [root] lsc_cisco_vlan.GigabitEthernet_0_0_0_5_1&#45;&gt;[root] lsc_cisco_interface.GigabitEthernet_0_0_0_5 -->
<g id="edge6" class="edge">
<title>[root] lsc_cisco_vlan.GigabitEthernet_0_0_0_5_1&#45;&gt;[root] lsc_cisco_interface.GigabitEthernet_0_0_0_5</title>
<path fill="none" stroke="#000000" d="M464.4007,-215.8314C464.7215,-208.131 465.1031,-198.9743 465.4596,-190.4166"/>
<polygon fill="#000000" stroke="#000000" points="468.957,-190.5503 465.8764,-180.4133 461.9631,-190.2589 468.957,-190.5503"/>
</g>
<!-- [root] provider.lsc -->
<g id="node7" class="node">
<title>[root] provider.lsc</title>
<polygon fill="none" stroke="#000000" points="321.6437,-36 248.6496,-18 321.6437,0 394.6377,-18 321.6437,-36"/>
<text text-anchor="middle" x="321.6437" y="-13.8" font-family="Times,serif" font-size="14.00" fill="#000000">provider.lsc</text>
</g>
<!-- [root] lsc_netconf_device.cisco1&#45;&gt;[root] provider.lsc -->
<g id="edge7" class="edge">
<title>[root] lsc_netconf_device.cisco1&#45;&gt;[root] provider.lsc</title>
<path fill="none" stroke="#000000" d="M321.6437,-71.8314C321.6437,-64.131 321.6437,-54.9743 321.6437,-46.4166"/>
<polygon fill="#000000" stroke="#000000" points="325.1438,-46.4132 321.6437,-36.4133 318.1438,-46.4133 325.1438,-46.4132"/>
</g>
<!-- [root] meta.count&#45;boundary (EachMode fixup) -->
<g id="node8" class="node">
<title>[root] meta.count&#45;boundary (EachMode fixup)</title>
<ellipse fill="none" stroke="#000000" cx="174.6437" cy="-378" rx="174.7874" ry="18"/>
<text text-anchor="middle" x="174.6437" y="-373.8" font-family="Times,serif" font-size="14.00" fill="#000000">[root] meta.count&#45;boundary (EachMode fixup)</text>
</g>
<!-- [root] meta.count&#45;boundary (EachMode fixup)&#45;&gt;[root] lsc_cisco_l2vpn.l2vpn_eviid_9 -->
<g id="edge8" class="edge">
<title>[root] meta.count&#45;boundary (EachMode fixup)&#45;&gt;[root] lsc_cisco_l2vpn.l2vpn_eviid_9</title>
<path fill="none" stroke="#000000" d="M210.7336,-360.2022C230.0657,-350.6686 254.0845,-338.8237 274.7335,-328.6406"/>
<polygon fill="#000000" stroke="#000000" points="276.5342,-331.6552 283.9548,-324.0931 273.4381,-325.377 276.5342,-331.6552"/>
</g>
<!-- [root] provider.lsc (close) -->
<g id="node9" class="node">
<title>[root] provider.lsc (close)</title>
<ellipse fill="none" stroke="#000000" cx="467.6437" cy="-378" rx="100.4689" ry="18"/>
<text text-anchor="middle" x="467.6437" y="-373.8" font-family="Times,serif" font-size="14.00" fill="#000000">[root] provider.lsc (close)</text>
</g>
<!-- [root] provider.lsc (close)&#45;&gt;[root] lsc_cisco_l2vpn.l2vpn_eviid_9 -->
<g id="edge9" class="edge">
<title>[root] provider.lsc (close)&#45;&gt;[root] lsc_cisco_l2vpn.l2vpn_eviid_9</title>
<path fill="none" stroke="#000000" d="M432.8067,-360.937C413.06,-351.2651 388.1084,-339.0439 366.7554,-328.5854"/>
<polygon fill="#000000" stroke="#000000" points="368.061,-325.3276 357.5408,-324.0721 364.9819,-331.614 368.061,-325.3276"/>
</g>
<!-- [root] root -->
<g id="node10" class="node">
<title>[root] root</title>
<ellipse fill="none" stroke="#000000" cx="320.6437" cy="-450" rx="46.8976" ry="18"/>
<text text-anchor="middle" x="320.6437" y="-445.8" font-family="Times,serif" font-size="14.00" fill="#000000">[root] root</text>
</g>
<!-- [root] root&#45;&gt;[root] meta.count&#45;boundary (EachMode fixup) -->
<g id="edge10" class="edge">
<title>[root] root&#45;&gt;[root] meta.count&#45;boundary (EachMode fixup)</title>
<path fill="none" stroke="#000000" d="M291.7988,-435.7751C271.1833,-425.6086 243.0423,-411.7308 219.5077,-400.1248"/>
<polygon fill="#000000" stroke="#000000" points="220.9242,-396.9209 210.4075,-395.6369 217.8281,-403.199 220.9242,-396.9209"/>
</g>
<!-- [root] root&#45;&gt;[root] provider.lsc (close) -->
<g id="edge11" class="edge">
<title>[root] root&#45;&gt;[root] provider.lsc (close)</title>
<path fill="none" stroke="#000000" d="M349.6861,-435.7751C370.8121,-425.4277 399.7872,-411.2358 423.7327,-399.5074"/>
<polygon fill="#000000" stroke="#000000" points="425.5314,-402.5237 432.9725,-394.9818 422.4523,-396.2373 425.5314,-402.5237"/>
</g>
</g>
</svg>
